<svg xmlns="http://www.w3.org/2000/svg" viewBox="0 0 512 768">
  <path fill="#9B7B0B" d="M390.2,1.3C390.2,1.3,96.6,275.5,96.6,275.5C83.7,288,82.8,299.5,73.7,325.6C64.6,351.7,0.9,737.7,0.9,737.7C-1.7,751.9,9.1,767.4,23.3,766.5C37.4,765.6,59.2,756.6,59.2,756.6C59.2,756.6,411.5,435.5,411.5,435.5C423.5,424.1,427.7,412,428.7,399.9C429.7,387.9,425.4,375.1,418.4,364.2C418.4,364.2,319,187.2,319,187.2C313.9,178.7,313.6,168.6,318.6,159.8C323.6,151,333.1,145.9,343,146.3C343,146.3,403.9,149.5,403.9,149.5C424.1,150.1,441.7,134.7,442.4,114.5C443,94.4,428.2,74.5,407.9,74C407.9,74,109.3,53.9,109.3,53.9C78.3,52.5,53.9,29.8,49.5,0.9L390.2,1.3Z" stroke="#9B7B0B" stroke-width="2"/>
</svg>