<svg xmlns="http://www.w3.org/2000/svg" viewBox="0 0 800 200">
  <path fill="#9B7B0B" d="M130,20C130,20,62,105,62,105C58,109,58,113,55,121C52,129,30,190,30,190C29,194,33,199,37,198.5C41,198,48,195,48,195C48,195,133,120,133,120C137,116.5,138.5,113,139,110C139.5,107,138,104,136,101.5C136,101.5,108,58,108,58C106,55.5,106,53,108,50C110,47,113,45.5,116,45.5C116,45.5,135,46.5,135,46.5C142,46.5,148,42,148,35.5C148,29,143,23,136,23C136,23,64,18,64,18C55,17.5,47,11.5,45,3L130,20Z" stroke="#9B7B0B" stroke-width="2"/>
  <text x="225" y="125" font-family="Arial, sans-serif" font-size="70" font-weight="bold" fill="#ffffff">SparkG Media</text>
</svg>