<svg xmlns="http://www.w3.org/2000/svg" viewBox="0 0 32 32">
  <rect width="32" height="32" fill="#000000" />
  <path fill="#9B7B0B" d="M16.67 1.54c-0.52 0.28-9.04 5.76-9.61 6.13-0.57 0.37-0.69 0.75-0.75 1.48-0.07 0.73-2.74 17.54-2.74 17.84 0 0.62 0.4 1.2 1.02 1.43 0.46 0.17 1.05 0.09 1.45-0.18 0.41-0.28 10.94-9.28 11.12-9.45 0.12-0.11 0.27-0.37 0.34-0.58 0.12-0.36 0.13-0.47 0.07-0.61-0.04-0.09-0.93-1.6-1.99-3.36-1.25-2.07-1.9-3.24-1.87-3.33 0.08-0.2 0.13-0.21 0.77-0.24 0.75-0.03 0.75-0.03 1.12-0.4 0.3-0.3 0.36-0.39 0.33-0.55-0.02-0.1-0.59-3.31-1.27-7.13-0.87-4.93-1.26-7.00-1.36-7.08-0.21-0.2-0.58-0.22-0.87-0.06z" stroke="#9B7B0B" stroke-width="1" />
</svg>